<?xml version="1.0" encoding="UTF-8"?><svg xmlns="http://www.w3.org/2000/svg" viewBox="0 0 1800 900" width="1800" height="900" role="img" aria-hidden="true"><defs><linearGradient id="g" x1="0" y1="0" x2="1" y2="1"><stop offset="0" stop-color="#DCE6DC"/><stop offset="0.55" stop-color="#F0E9DC"/><stop offset="1" stop-color="#DCE6DC"/></linearGradient></defs><rect width="1800" height="900" fill="url(#g)"/><g transform="rotate(20 1613.6 803.6)"><g transform="translate(1580.0 770.0) scale(0.7)" fill="#1E4034" fill-opacity="0.05"><ellipse cx="30" cy="38" rx="7.4" ry="9.6"/><ellipse cx="48" cy="31.5" rx="7.8" ry="10.2"/><ellipse cx="66" cy="38" rx="7.4" ry="9.6"/><path d="M48 49.5c-9.9 0-18.4 8.1-18.4 16.6 0 6.3 5.2 10.2 11.3 9.5 3.1-.4 5.4-1.6 7.1-1.6s4 1.2 7.1 1.6c6.1.7 11.3-3.2 11.3-9.5C66.4 57.6 57.9 49.5 48 49.5Z"/></g></g><g transform="rotate(-30 358.4 538.4)"><g transform="translate(320.0 500.0) scale(0.8)" fill="#1E4034" fill-opacity="0.05"><ellipse cx="30" cy="38" rx="7.4" ry="9.6"/><ellipse cx="48" cy="31.5" rx="7.8" ry="10.2"/><ellipse cx="66" cy="38" rx="7.4" ry="9.6"/><path d="M48 49.5c-9.9 0-18.4 8.1-18.4 16.6 0 6.3 5.2 10.2 11.3 9.5 3.1-.4 5.4-1.6 7.1-1.6s4 1.2 7.1 1.6c6.1.7 11.3-3.2 11.3-9.5C66.4 57.6 57.9 49.5 48 49.5Z"/></g></g><g transform="rotate(-20 903.2 273.2)"><g transform="translate(860.0 230.0) scale(0.9)" fill="#1E4034" fill-opacity="0.05"><ellipse cx="30" cy="38" rx="7.4" ry="9.6"/><ellipse cx="48" cy="31.5" rx="7.8" ry="10.2"/><ellipse cx="66" cy="38" rx="7.4" ry="9.6"/><path d="M48 49.5c-9.9 0-18.4 8.1-18.4 16.6 0 6.3 5.2 10.2 11.3 9.5 3.1-.4 5.4-1.6 7.1-1.6s4 1.2 7.1 1.6c6.1.7 11.3-3.2 11.3-9.5C66.4 57.6 57.9 49.5 48 49.5Z"/></g></g><g transform="rotate(-10 1448.0 8.0)"><g transform="translate(1400.0 -40.0) scale(1.0)" fill="#1E4034" fill-opacity="0.05"><ellipse cx="30" cy="38" rx="7.4" ry="9.6"/><ellipse cx="48" cy="31.5" rx="7.8" ry="10.2"/><ellipse cx="66" cy="38" rx="7.4" ry="9.6"/><path d="M48 49.5c-9.9 0-18.4 8.1-18.4 16.6 0 6.3 5.2 10.2 11.3 9.5 3.1-.4 5.4-1.6 7.1-1.6s4 1.2 7.1 1.6c6.1.7 11.3-3.2 11.3-9.5C66.4 57.6 57.9 49.5 48 49.5Z"/></g></g><g transform="rotate(0 164.0 614.0)"><g transform="translate(140.0 590.0) scale(0.5)" fill="#1E4034" fill-opacity="0.05"><ellipse cx="30" cy="38" rx="7.4" ry="9.6"/><ellipse cx="48" cy="31.5" rx="7.8" ry="10.2"/><ellipse cx="66" cy="38" rx="7.4" ry="9.6"/><path d="M48 49.5c-9.9 0-18.4 8.1-18.4 16.6 0 6.3 5.2 10.2 11.3 9.5 3.1-.4 5.4-1.6 7.1-1.6s4 1.2 7.1 1.6c6.1.7 11.3-3.2 11.3-9.5C66.4 57.6 57.9 49.5 48 49.5Z"/></g></g><g transform="rotate(10 708.8 348.8)"><g transform="translate(680.0 320.0) scale(0.6)" fill="#1E4034" fill-opacity="0.05"><ellipse cx="30" cy="38" rx="7.4" ry="9.6"/><ellipse cx="48" cy="31.5" rx="7.8" ry="10.2"/><ellipse cx="66" cy="38" rx="7.4" ry="9.6"/><path d="M48 49.5c-9.9 0-18.4 8.1-18.4 16.6 0 6.3 5.2 10.2 11.3 9.5 3.1-.4 5.4-1.6 7.1-1.6s4 1.2 7.1 1.6c6.1.7 11.3-3.2 11.3-9.5C66.4 57.6 57.9 49.5 48 49.5Z"/></g></g><g transform="rotate(20 1253.6 83.6)"><g transform="translate(1220.0 50.0) scale(0.7)" fill="#1E4034" fill-opacity="0.05"><ellipse cx="30" cy="38" rx="7.4" ry="9.6"/><ellipse cx="48" cy="31.5" rx="7.8" ry="10.2"/><ellipse cx="66" cy="38" rx="7.4" ry="9.6"/><path d="M48 49.5c-9.9 0-18.4 8.1-18.4 16.6 0 6.3 5.2 10.2 11.3 9.5 3.1-.4 5.4-1.6 7.1-1.6s4 1.2 7.1 1.6c6.1.7 11.3-3.2 11.3-9.5C66.4 57.6 57.9 49.5 48 49.5Z"/></g></g><g transform="rotate(-30 -1.5999999999999943 718.4)"><g transform="translate(-40.0 680.0) scale(0.8)" fill="#1E4034" fill-opacity="0.05"><ellipse cx="30" cy="38" rx="7.4" ry="9.6"/><ellipse cx="48" cy="31.5" rx="7.8" ry="10.2"/><ellipse cx="66" cy="38" rx="7.4" ry="9.6"/><path d="M48 49.5c-9.9 0-18.4 8.1-18.4 16.6 0 6.3 5.2 10.2 11.3 9.5 3.1-.4 5.4-1.6 7.1-1.6s4 1.2 7.1 1.6c6.1.7 11.3-3.2 11.3-9.5C66.4 57.6 57.9 49.5 48 49.5Z"/></g></g><g transform="rotate(-20 543.2 453.2)"><g transform="translate(500.0 410.0) scale(0.9)" fill="#1E4034" fill-opacity="0.05"><ellipse cx="30" cy="38" rx="7.4" ry="9.6"/><ellipse cx="48" cy="31.5" rx="7.8" ry="10.2"/><ellipse cx="66" cy="38" rx="7.4" ry="9.6"/><path d="M48 49.5c-9.9 0-18.4 8.1-18.4 16.6 0 6.3 5.2 10.2 11.3 9.5 3.1-.4 5.4-1.6 7.1-1.6s4 1.2 7.1 1.6c6.1.7 11.3-3.2 11.3-9.5C66.4 57.6 57.9 49.5 48 49.5Z"/></g></g><rect x="0.75" y="0.75" width="1798.5" height="898.5" fill="none" stroke="#C7A57E" stroke-opacity="0.45" stroke-width="1.5"/></svg>
