<?xml version="1.0" encoding="UTF-8"?><svg xmlns="http://www.w3.org/2000/svg" viewBox="0 0 1200 800" width="1200" height="800" role="img" aria-hidden="true"><defs><linearGradient id="g" x1="0" y1="0" x2="1" y2="1"><stop offset="0" stop-color="#DCE6DC"/><stop offset="0.55" stop-color="#F0E9DC"/><stop offset="1" stop-color="#DCE6DC"/></linearGradient></defs><rect width="1200" height="800" fill="url(#g)"/><g transform="rotate(-15 778.4 518.4)"><g transform="translate(740.0 480.0) scale(0.8)" fill="#1E4034" fill-opacity="0.07"><ellipse cx="30" cy="38" rx="7.4" ry="9.6"/><ellipse cx="48" cy="31.5" rx="7.8" ry="10.2"/><ellipse cx="66" cy="38" rx="7.4" ry="9.6"/><path d="M48 49.5c-9.9 0-18.4 8.1-18.4 16.6 0 6.3 5.2 10.2 11.3 9.5 3.1-.4 5.4-1.6 7.1-1.6s4 1.2 7.1 1.6c6.1.7 11.3-3.2 11.3-9.5C66.4 57.6 57.9 49.5 48 49.5Z"/></g></g><g transform="rotate(0 245.6 485.6)"><g transform="translate(200.0 440.0) scale(0.95)" fill="#1E4034" fill-opacity="0.07"><ellipse cx="30" cy="38" rx="7.4" ry="9.6"/><ellipse cx="48" cy="31.5" rx="7.8" ry="10.2"/><ellipse cx="66" cy="38" rx="7.4" ry="9.6"/><path d="M48 49.5c-9.9 0-18.4 8.1-18.4 16.6 0 6.3 5.2 10.2 11.3 9.5 3.1-.4 5.4-1.6 7.1-1.6s4 1.2 7.1 1.6c6.1.7 11.3-3.2 11.3-9.5C66.4 57.6 57.9 49.5 48 49.5Z"/></g></g><g transform="rotate(15 884.0 424.00000000000006)"><g transform="translate(860.0 400.00000000000006) scale(0.5)" fill="#1E4034" fill-opacity="0.07"><ellipse cx="30" cy="38" rx="7.4" ry="9.6"/><ellipse cx="48" cy="31.5" rx="7.8" ry="10.2"/><ellipse cx="66" cy="38" rx="7.4" ry="9.6"/><path d="M48 49.5c-9.9 0-18.4 8.1-18.4 16.6 0 6.3 5.2 10.2 11.3 9.5 3.1-.4 5.4-1.6 7.1-1.6s4 1.2 7.1 1.6c6.1.7 11.3-3.2 11.3-9.5C66.4 57.6 57.9 49.5 48 49.5Z"/></g></g><g transform="rotate(-30 351.2 391.2)"><g transform="translate(320.0 360.0) scale(0.65)" fill="#1E4034" fill-opacity="0.07"><ellipse cx="30" cy="38" rx="7.4" ry="9.6"/><ellipse cx="48" cy="31.5" rx="7.8" ry="10.2"/><ellipse cx="66" cy="38" rx="7.4" ry="9.6"/><path d="M48 49.5c-9.9 0-18.4 8.1-18.4 16.6 0 6.3 5.2 10.2 11.3 9.5 3.1-.4 5.4-1.6 7.1-1.6s4 1.2 7.1 1.6c6.1.7 11.3-3.2 11.3-9.5C66.4 57.6 57.9 49.5 48 49.5Z"/></g></g><g transform="rotate(-15 1018.4 358.4)"><g transform="translate(980.0 320.0) scale(0.8)" fill="#1E4034" fill-opacity="0.07"><ellipse cx="30" cy="38" rx="7.4" ry="9.6"/><ellipse cx="48" cy="31.5" rx="7.8" ry="10.2"/><ellipse cx="66" cy="38" rx="7.4" ry="9.6"/><path d="M48 49.5c-9.9 0-18.4 8.1-18.4 16.6 0 6.3 5.2 10.2 11.3 9.5 3.1-.4 5.4-1.6 7.1-1.6s4 1.2 7.1 1.6c6.1.7 11.3-3.2 11.3-9.5C66.4 57.6 57.9 49.5 48 49.5Z"/></g></g><g transform="rotate(0 485.6 325.6)"><g transform="translate(440.0 280.0) scale(0.95)" fill="#1E4034" fill-opacity="0.07"><ellipse cx="30" cy="38" rx="7.4" ry="9.6"/><ellipse cx="48" cy="31.5" rx="7.8" ry="10.2"/><ellipse cx="66" cy="38" rx="7.4" ry="9.6"/><path d="M48 49.5c-9.9 0-18.4 8.1-18.4 16.6 0 6.3 5.2 10.2 11.3 9.5 3.1-.4 5.4-1.6 7.1-1.6s4 1.2 7.1 1.6c6.1.7 11.3-3.2 11.3-9.5C66.4 57.6 57.9 49.5 48 49.5Z"/></g></g><g transform="rotate(15 1124.0 264.0)"><g transform="translate(1100.0 240.0) scale(0.5)" fill="#1E4034" fill-opacity="0.07"><ellipse cx="30" cy="38" rx="7.4" ry="9.6"/><ellipse cx="48" cy="31.5" rx="7.8" ry="10.2"/><ellipse cx="66" cy="38" rx="7.4" ry="9.6"/><path d="M48 49.5c-9.9 0-18.4 8.1-18.4 16.6 0 6.3 5.2 10.2 11.3 9.5 3.1-.4 5.4-1.6 7.1-1.6s4 1.2 7.1 1.6c6.1.7 11.3-3.2 11.3-9.5C66.4 57.6 57.9 49.5 48 49.5Z"/></g></g><g transform="rotate(-30 591.2 231.2)"><g transform="translate(560.0 200.0) scale(0.65)" fill="#1E4034" fill-opacity="0.07"><ellipse cx="30" cy="38" rx="7.4" ry="9.6"/><ellipse cx="48" cy="31.5" rx="7.8" ry="10.2"/><ellipse cx="66" cy="38" rx="7.4" ry="9.6"/><path d="M48 49.5c-9.9 0-18.4 8.1-18.4 16.6 0 6.3 5.2 10.2 11.3 9.5 3.1-.4 5.4-1.6 7.1-1.6s4 1.2 7.1 1.6c6.1.7 11.3-3.2 11.3-9.5C66.4 57.6 57.9 49.5 48 49.5Z"/></g></g><g transform="rotate(-15 58.400000000000006 198.4)"><g transform="translate(20.0 160.0) scale(0.8)" fill="#1E4034" fill-opacity="0.07"><ellipse cx="30" cy="38" rx="7.4" ry="9.6"/><ellipse cx="48" cy="31.5" rx="7.8" ry="10.2"/><ellipse cx="66" cy="38" rx="7.4" ry="9.6"/><path d="M48 49.5c-9.9 0-18.4 8.1-18.4 16.6 0 6.3 5.2 10.2 11.3 9.5 3.1-.4 5.4-1.6 7.1-1.6s4 1.2 7.1 1.6c6.1.7 11.3-3.2 11.3-9.5C66.4 57.6 57.9 49.5 48 49.5Z"/></g></g><rect x="0.75" y="0.75" width="1198.5" height="798.5" fill="none" stroke="#C7A57E" stroke-opacity="0.45" stroke-width="1.5"/><g><rect x="290.0" y="334.0" width="620" height="132" rx="14" fill="#FAF7F1" fill-opacity="0.94" stroke="#7E9C88" stroke-width="1.5"/><text x="600.0" y="378.0" text-anchor="middle" font-family="Inter, Helvetica, Arial, sans-serif" font-size="15" font-weight="700" letter-spacing="2.2" fill="#456052">PHOTO PLACEHOLDER · 1200×800</text><text x="600.0" y="418.0" text-anchor="middle" font-family="Georgia, serif" font-size="23" fill="#1E4034">Clean boarding run, or a dog on its daily walk</text><text x="600.0" y="445.0" text-anchor="middle" font-family="Inter, Helvetica, Arial, sans-serif" font-size="13" fill="#456052">Columbia Animal Hospital · replace before launch</text></g></svg>
